<svg xmlns="http://www.w3.org/2000/svg" viewBox="0 0 226 276" width="226" height="276" role="img" aria-labelledby="title desc">
  <title id="title">RTC dotted transmission globe</title>
  <desc id="desc">Transparent-background dotted blue cyan communication globe recreated from the reference image.</desc>
  <g>
    <ellipse cx="113.00" cy="33.00" rx="4.35" ry="1.35" fill="rgb(210,223,230)"/>
    <ellipse cx="93.00" cy="35.50" rx="4.35" ry="2.85" fill="rgb(168,194,206)"/>
    <ellipse cx="133.50" cy="35.50" rx="4.85" ry="2.85" fill="rgb(157,209,230)"/>
    <ellipse cx="113.00" cy="39.50" rx="7.35" ry="4.85" fill="rgb(113,157,175)"/>
    <ellipse cx="71.00" cy="42.50" rx="4.35" ry="3.85" fill="rgb(145,179,193)"/>
    <ellipse cx="155.50" cy="42.50" rx="4.85" ry="3.85" fill="rgb(131,197,224)"/>
    <ellipse cx="90.00" cy="47.50" rx="7.35" ry="5.85" fill="rgb(111,155,174)"/>
    <ellipse cx="136.50" cy="47.50" rx="6.85" ry="5.85" fill="rgb(113,190,220)"/>
    <ellipse cx="50.00" cy="54.00" rx="4.35" ry="4.35" fill="rgb(141,176,191)"/>
    <ellipse cx="176.50" cy="54.00" rx="3.85" ry="4.35" fill="rgb(147,204,228)"/>
    <ellipse cx="113.00" cy="56.00" rx="10.35" ry="8.35" fill="rgb(82,135,158)"/>
    <ellipse cx="159.50" cy="59.00" rx="6.85" ry="6.35" fill="rgb(107,187,219)"/>
    <ellipse cx="67.00" cy="59.50" rx="6.35" ry="6.85" fill="rgb(101,148,168)"/>
    <ellipse cx="88.50" cy="68.00" rx="9.85" ry="9.35" fill="rgb(82,135,157)"/>
    <ellipse cx="137.50" cy="68.00" rx="9.85" ry="9.35" fill="rgb(87,178,214)"/>
    <ellipse cx="32.00" cy="69.00" rx="4.35" ry="5.35" fill="rgb(135,172,187)"/>
    <ellipse cx="194.50" cy="69.00" rx="3.85" ry="4.35" fill="rgb(147,205,228)"/>
    <ellipse cx="46.00" cy="74.50" rx="5.35" ry="6.85" fill="rgb(91,142,163)"/>
    <ellipse cx="181.00" cy="74.50" rx="6.35" ry="6.85" fill="rgb(111,189,219)"/>
    <ellipse cx="113.00" cy="79.50" rx="12.35" ry="11.85" fill="rgb(65,123,148)"/>
    <ellipse cx="64.00" cy="83.00" rx="9.35" ry="10.35" fill="rgb(84,137,159)"/>
    <ellipse cx="162.50" cy="83.50" rx="8.85" ry="9.85" fill="rgb(90,179,215)"/>
    <ellipse cx="22.50" cy="86.00" rx="2.85" ry="5.35" fill="rgb(161,189,202)"/>
    <ellipse cx="205.00" cy="86.50" rx="2.35" ry="3.85" fill="rgb(177,217,234)"/>
    <ellipse cx="30.00" cy="91.00" rx="4.35" ry="7.35" fill="rgb(117,159,177)"/>
    <ellipse cx="197.50" cy="91.00" rx="3.85" ry="6.35" fill="rgb(113,189,220)"/>
    <ellipse cx="87.00" cy="95.00" rx="12.35" ry="12.35" fill="rgb(69,126,150)"/>
    <ellipse cx="139.50" cy="95.00" rx="11.85" ry="12.35" fill="rgb(78,174,212)"/>
    <ellipse cx="43.00" cy="98.50" rx="8.35" ry="9.85" fill="rgb(87,139,160)"/>
    <ellipse cx="183.50" cy="99.50" rx="7.85" ry="9.85" fill="rgb(95,181,216)"/>
    <ellipse cx="22.50" cy="107.50" rx="1.85" ry="4.85" fill="rgb(175,199,210)"/>
    <ellipse cx="205.00" cy="108.00" rx="2.35" ry="3.35" fill="rgb(192,224,237)"/>
    <ellipse cx="113.50" cy="108.50" rx="3.85" ry="3.85" fill="rgb(143,203,227)"/>
    <ellipse cx="62.50" cy="109.50" rx="10.85" ry="12.85" fill="rgb(71,128,151)"/>
    <ellipse cx="164.00" cy="110.00" rx="11.35" ry="12.35" fill="rgb(80,175,213)"/>
    <ellipse cx="28.00" cy="115.00" rx="4.35" ry="7.35" fill="rgb(120,161,179)"/>
    <ellipse cx="198.50" cy="115.00" rx="3.85" ry="7.35" fill="rgb(119,192,221)"/>
    <ellipse cx="86.50" cy="124.50" rx="3.85" ry="3.85" fill="rgb(155,208,229)"/>
    <ellipse cx="140.50" cy="124.50" rx="3.85" ry="3.85" fill="rgb(158,209,230)"/>
    <ellipse cx="42.00" cy="125.50" rx="7.35" ry="9.85" fill="rgb(82,135,157)"/>
    <ellipse cx="184.50" cy="126.00" rx="7.85" ry="10.35" fill="rgb(92,180,215)"/>
    <ellipse cx="21.50" cy="129.00" rx="2.85" ry="4.35" fill="rgb(193,212,220)"/>
    <ellipse cx="206.00" cy="129.50" rx="1.35" ry="3.85" fill="rgb(186,221,236)"/>
    <ellipse cx="27.50" cy="139.50" rx="3.85" ry="7.85" fill="rgb(109,154,173)"/>
    <ellipse cx="62.50" cy="140.00" rx="10.85" ry="13.35" fill="rgb(67,125,149)"/>
    <ellipse cx="113.50" cy="140.00" rx="3.85" ry="4.35" fill="rgb(140,201,226)"/>
    <ellipse cx="199.50" cy="140.00" rx="4.85" ry="7.35" fill="rgb(121,193,222)"/>
    <ellipse cx="165.00" cy="140.50" rx="11.35" ry="13.85" fill="rgb(81,175,213)"/>
    <ellipse cx="21.00" cy="151.00" rx="2.35" ry="3.35" fill="rgb(204,219,227)"/>
    <ellipse cx="206.00" cy="151.50" rx="1.35" ry="4.85" fill="rgb(181,219,236)"/>
    <ellipse cx="42.00" cy="154.00" rx="7.35" ry="10.35" fill="rgb(81,135,157)"/>
    <ellipse cx="185.00" cy="154.50" rx="8.35" ry="10.85" fill="rgb(95,182,216)"/>
    <ellipse cx="86.50" cy="156.50" rx="3.85" ry="3.85" fill="rgb(155,208,229)"/>
    <ellipse cx="140.50" cy="156.50" rx="3.85" ry="3.85" fill="rgb(156,208,229)"/>
    <ellipse cx="28.00" cy="165.50" rx="4.35" ry="6.85" fill="rgb(117,160,177)"/>
    <ellipse cx="199.00" cy="166.00" rx="4.35" ry="7.35" fill="rgb(122,193,222)"/>
    <ellipse cx="62.50" cy="169.50" rx="10.85" ry="12.85" fill="rgb(91,207,254)"/>
    <ellipse cx="164.00" cy="170.00" rx="11.35" ry="12.35" fill="rgb(80,175,213)"/>
    <ellipse cx="113.50" cy="171.50" rx="3.85" ry="3.85" fill="rgb(146,204,227)"/>
    <ellipse cx="22.50" cy="172.50" rx="1.85" ry="3.85" fill="rgb(189,209,218)"/>
    <ellipse cx="205.00" cy="172.50" rx="2.35" ry="4.85" fill="rgb(189,222,237)"/>
    <ellipse cx="43.50" cy="181.50" rx="7.85" ry="9.85" fill="rgb(104,210,253)"/>
    <ellipse cx="183.50" cy="181.50" rx="7.85" ry="9.85" fill="rgb(94,181,215)"/>
    <ellipse cx="87.50" cy="186.00" rx="11.85" ry="12.35" fill="rgb(88,206,254)"/>
    <ellipse cx="139.50" cy="186.00" rx="11.85" ry="12.35" fill="rgb(90,207,254)"/>
    <ellipse cx="30.00" cy="189.00" rx="4.35" ry="6.35" fill="rgb(123,215,253)"/>
    <ellipse cx="198.00" cy="189.50" rx="4.35" ry="6.85" fill="rgb(120,192,221)"/>
    <ellipse cx="22.50" cy="193.50" rx="1.85" ry="3.85" fill="rgb(156,224,252)"/>
    <ellipse cx="205.00" cy="194.00" rx="2.35" ry="5.35" fill="rgb(167,213,232)"/>
    <ellipse cx="64.50" cy="197.00" rx="8.85" ry="9.35" fill="rgb(98,209,253)"/>
    <ellipse cx="162.50" cy="197.50" rx="8.85" ry="9.85" fill="rgb(98,209,253)"/>
    <ellipse cx="113.50" cy="199.50" rx="12.85" ry="11.85" fill="rgb(89,207,254)"/>
    <ellipse cx="46.00" cy="205.50" rx="5.35" ry="6.85" fill="rgb(114,213,253)"/>
    <ellipse cx="181.00" cy="206.00" rx="6.35" ry="7.35" fill="rgb(121,215,253)"/>
    <ellipse cx="33.00" cy="211.00" rx="3.35" ry="4.35" fill="rgb(151,223,252)"/>
    <ellipse cx="88.50" cy="212.00" rx="9.85" ry="9.35" fill="rgb(100,209,253)"/>
    <ellipse cx="139.00" cy="212.00" rx="9.35" ry="9.35" fill="rgb(96,208,253)"/>
    <ellipse cx="194.50" cy="212.00" rx="3.85" ry="5.35" fill="rgb(138,219,252)"/>
    <ellipse cx="67.50" cy="220.50" rx="6.85" ry="5.85" fill="rgb(113,213,253)"/>
    <ellipse cx="159.50" cy="221.00" rx="6.85" ry="6.35" fill="rgb(115,213,253)"/>
    <ellipse cx="113.50" cy="224.00" rx="9.85" ry="8.35" fill="rgb(100,209,253)"/>
    <ellipse cx="50.00" cy="226.50" rx="4.35" ry="3.85" fill="rgb(141,220,252)"/>
    <ellipse cx="177.50" cy="227.00" rx="3.85" ry="4.35" fill="rgb(146,221,252)"/>
    <ellipse cx="136.50" cy="232.00" rx="6.85" ry="5.35" fill="rgb(118,214,253)"/>
    <ellipse cx="91.00" cy="232.50" rx="6.35" ry="4.85" fill="rgb(110,212,253)"/>
    <ellipse cx="71.00" cy="237.50" rx="5.35" ry="3.85" fill="rgb(140,220,252)"/>
    <ellipse cx="156.00" cy="237.50" rx="4.35" ry="3.85" fill="rgb(155,224,252)"/>
    <ellipse cx="113.50" cy="240.00" rx="6.85" ry="4.35" fill="rgb(127,216,253)"/>
    <ellipse cx="93.50" cy="244.50" rx="4.85" ry="2.85" fill="rgb(158,224,252)"/>
    <ellipse cx="134.00" cy="245.00" rx="4.35" ry="2.35" fill="rgb(165,227,252)"/>
    <ellipse cx="113.50" cy="246.50" rx="3.85" ry="1.00" fill="rgb(203,237,251)"/>
  </g>
</svg>